<svg width="70" height="70" viewBox="0 0 70 70" fill="none" xmlns="http://www.w3.org/2000/svg">
<g clip-path="url(#clip0)">
<path d="M35.0002 5.46573C31.2966 1.20764 27.5177 -0.0213228 24.7463 0.000278713C17.4691 0.0570168 12.4417 7.26535 12.4417 14.6146C12.4417 21.8864 19.6534 28.0167 28.7837 35.7752C30.3558 37.113 35.0002 41.1265 35.0002 41.1265C35.0002 41.1265 39.6445 37.1131 41.2166 35.7752C50.3469 28.0167 57.5587 21.8864 57.5587 14.6146C57.5587 7.22789 52.4475 0.0891455 45.254 0.0125834C42.4892 -0.0168111 38.7118 1.20272 35.0002 5.46573ZM41.1525 24.7463H37.0509V28.8478H32.9494V24.7463H28.8478V20.6447H32.9494V16.5432H37.0509V20.6447H41.1525V24.7463Z" fill="#FF0080"/>
<path d="M63.7108 27.1661V29.2579C63.6287 35.2051 63.0955 42.875 56.082 48.207C54.4823 49.4375 52.4726 50.5039 50.0936 51.4474C49.9296 51.1191 48.7811 48.043 48.617 47.5919C50.1346 47.0177 51.57 46.3204 53.1697 45.254C57.1891 41.8496 57.5174 40.25 57.2303 39.5117C56.7381 38.2813 54.0722 38.6095 52.7597 38.8556C48.9453 39.5939 43.9412 42.0957 40.783 45.254C38.5684 47.2638 37.0508 49.8068 37.0508 52.6778V70H53.457V67.9493C53.457 63.1913 55.3438 61.6602 58.4607 59.3634C63.2597 55.795 69.9999 50.9142 69.9999 30.8986V16.5432H68.6759C63.7168 16.5432 63.7972 22.5293 63.7108 27.1661Z" fill="#FF0080"/>
<path d="M16.5431 67.9493V70H32.9493V52.6778C32.9493 49.8068 31.4318 47.2638 29.2171 45.254C26.0587 42.0957 21.0547 39.5939 17.2404 38.8556C15.9279 38.6095 13.262 38.2814 12.7699 39.5117C12.4828 40.25 12.8109 41.8496 16.8304 45.254C18.43 46.3204 19.8655 47.0177 21.3831 47.5919C21.2192 48.0431 20.0706 51.1193 19.9066 51.4474C17.5275 50.5039 15.5179 49.4373 13.9182 48.207C6.90465 42.875 6.37145 35.2053 6.28928 29.2579V27.1661C6.20288 22.5293 6.28327 16.5432 1.32422 16.5432H0.000244141V30.8986C0.000244141 50.9142 6.74045 55.795 11.5394 59.3634C14.6563 61.6602 16.5431 63.1913 16.5431 67.9493Z" fill="#FF0080"/>
</g>
<defs>
<clipPath id="clip0">
<rect width="70" height="70" fill="white"/>
</clipPath>
</defs>
</svg>
