<svg width="15" height="15" viewBox="0 0 15 15" fill="none" xmlns="http://www.w3.org/2000/svg">
<g clip-path="url(#clip0)">
<path d="M14.8043 4.7813L7.74375 0.0742877C7.59612 -0.0240912 7.40382 -0.0240912 7.25622 0.0742877L0.195703 4.7813C0.073418 4.8628 0 5 0 5.14692V14.561C0 14.8037 0.196758 15.0005 0.439453 15.0005H14.5605C14.8032 15.0005 15 14.8037 15 14.561V5.14692C15 5 14.9266 4.8628 14.8043 4.7813ZM7.49997 0.968106L13.8017 5.16922L7.49997 9.32747L1.19827 5.16922L7.49997 0.968106ZM14.1211 14.1216H0.878906V6.01148L7.25795 10.2208C7.33134 10.2692 7.41565 10.2934 7.49997 10.2934C7.58429 10.2934 7.66857 10.2692 7.74199 10.2208L14.1211 6.01148V14.1216Z" fill="#E33176"/>
</g>
<defs>
<clipPath id="clip0">
<rect width="15" height="15" fill="white"/>
</clipPath>
</defs>
</svg>
