<svg width="15" height="15" viewBox="0 0 15 15" fill="none" xmlns="http://www.w3.org/2000/svg">
<path d="M7.49991 0C4.69289 0 2.40918 2.28368 2.40918 5.0907C2.40918 6.2187 3.07328 7.93418 4.49916 10.4894C5.47215 12.2329 6.44065 13.7055 6.48151 13.7676L7.18153 14.8286C7.2521 14.9356 7.37169 15 7.49991 15C7.62813 15 7.74771 14.9356 7.81829 14.8286L8.51827 13.7676C8.55873 13.7063 9.52019 12.2464 10.5007 10.4894C11.9265 7.9343 12.5906 6.21882 12.5906 5.0907C12.5906 2.28368 10.3069 0 7.49991 0ZM9.83454 10.1176C8.86772 11.85 7.92145 13.2871 7.88157 13.3474L7.49991 13.9259L7.11836 13.3476C7.07827 13.2867 6.12474 11.8368 5.16527 10.1176C3.84265 7.74744 3.17202 6.05612 3.17202 5.0907C3.17202 2.70431 5.11349 0.762843 7.49991 0.762843C9.88632 0.762843 11.8278 2.70431 11.8278 5.0907C11.8278 6.05624 11.1572 7.7475 9.83454 10.1176Z" fill="#E33176"/>
<path d="M7.50002 2.23636C5.94366 2.23636 4.67749 3.50255 4.67749 5.05887C4.67749 6.61519 5.94366 7.88138 7.50002 7.88138C9.05638 7.88138 10.3225 6.61519 10.3225 5.05887C10.3225 3.50255 9.05638 2.23636 7.50002 2.23636ZM7.50002 7.11854C6.36429 7.11854 5.44034 6.19459 5.44034 5.05887C5.44034 3.92315 6.36429 2.9992 7.50002 2.9992C8.63577 2.9992 9.5597 3.92315 9.5597 5.05887C9.5597 6.19459 8.63577 7.11854 7.50002 7.11854Z" fill="#E33176"/>
</svg>
