<svg width="70" height="70" viewBox="0 0 70 70" fill="none" xmlns="http://www.w3.org/2000/svg">
<path d="M16.543 9.36523H6.15234C5.01881 9.36523 4.10156 10.2825 4.10156 11.416C4.10156 12.5496 5.01881 13.4668 6.15234 13.4668H16.543C17.6765 13.4668 18.5938 12.5496 18.5938 11.416C18.5938 10.2825 17.6765 9.36523 16.543 9.36523Z" fill="#FF0080"/>
<path d="M16.543 25.7715H6.15234C5.01881 25.7715 4.10156 26.6887 4.10156 27.8223C4.10156 28.9558 5.01881 29.873 6.15234 29.873H16.543C17.6765 29.873 18.5938 28.9558 18.5938 27.8223C18.5938 26.6887 17.6765 25.7715 16.543 25.7715Z" fill="#FF0080"/>
<path d="M12.4414 17.5684H2.05078C0.917246 17.5684 0 18.4856 0 19.6191C0 20.7527 0.917246 21.6699 2.05078 21.6699H12.4414C13.5749 21.6699 14.4922 20.7527 14.4922 19.6191C14.4922 18.4856 13.5749 17.5684 12.4414 17.5684Z" fill="#FF0080"/>
<path d="M65.8985 27.8223H53.4571V19.6191C53.4571 16.0171 49.0508 14.1206 46.4543 16.7204L30.0493 33.1254C28.4471 34.7277 28.4471 37.3231 30.0493 38.9253L39.4541 48.3301L27.9985 59.7856C26.3963 61.3878 26.3963 63.9833 27.9985 65.5855C29.6006 67.1876 32.1962 67.1877 33.7984 65.5855L48.1539 51.23C49.7561 49.6278 49.7561 47.0323 48.1539 45.4301L38.7491 36.0254L45.2539 29.5206V31.9238C45.2539 34.1888 47.0905 36.0254 49.3555 36.0254H65.8985C68.1635 36.0254 70 34.1888 70 31.9238C70 29.6588 68.1635 27.8223 65.8985 27.8223Z" fill="#FF0080"/>
<path d="M38.3003 6.97823C36.6701 5.89474 34.5072 6.10911 33.1252 7.49093L21.8459 18.7702C20.2437 20.3724 20.2437 22.9679 21.8459 24.5701C23.4481 26.1723 26.0438 26.1722 27.646 24.57L36.548 15.6679L39.5468 17.8281L43.5535 13.8214C44.2237 13.1512 45.0142 12.631 45.8786 12.2248L38.3003 6.97823Z" fill="#FF0080"/>
<path d="M27.1494 41.8253C26.1102 40.7861 25.4165 39.5071 25.0507 38.124L3.38916 59.7856C1.78695 61.3878 1.78695 63.9833 3.38916 65.5855C4.99123 67.1876 7.58683 67.1877 9.18904 65.5855L30.0493 44.7252L27.1494 41.8253Z" fill="#FF0080"/>
<path d="M55.5078 15.5176C58.9057 15.5176 61.6602 12.7631 61.6602 9.36523C61.6602 5.96739 58.9057 3.21289 55.5078 3.21289C52.11 3.21289 49.3555 5.96739 49.3555 9.36523C49.3555 12.7631 52.11 15.5176 55.5078 15.5176Z" fill="#FF0080"/>
</svg>
