<svg width="15" height="15" viewBox="0 0 15 15" fill="none" xmlns="http://www.w3.org/2000/svg">
<path d="M10.8436 0H4.15621C3.59907 0 3.14307 0.455571 3.14307 1.01314V13.9864C3.14307 14.544 3.59907 15 4.15621 15H10.8436C11.4008 15 11.8568 14.5449 11.8568 13.9869V1.01314C11.8568 0.455571 11.4008 0 10.8436 0ZM6.43021 0.730286H8.56964C8.63735 0.730286 8.69221 0.785143 8.69221 0.853286C8.69221 0.921 8.63735 0.975857 8.56964 0.975857H6.43021C6.36249 0.975857 6.30764 0.921 6.30764 0.853286C6.30764 0.785143 6.36249 0.730286 6.43021 0.730286ZM7.49992 14.4934C7.22007 14.4934 6.99335 14.2667 6.99335 13.9864C6.99335 13.7061 7.22007 13.4799 7.49992 13.4799C7.77978 13.4799 8.00649 13.7061 8.00649 13.9864C8.00649 14.2667 7.77978 14.4934 7.49992 14.4934ZM11.1518 13.125H3.84807V1.60671H11.1518V13.125Z" fill="#E33176"/>
</svg>
