<svg width="35" height="35" viewBox="0 0 35 35" fill="none" xmlns="http://www.w3.org/2000/svg">
<path d="M28.9355 6.11358L28.9023 6.64477C28.9023 6.64506 28.9023 6.64394 28.9023 6.6477L28.9024 6.64884C28.9025 6.6549 28.903 6.68129 28.9017 6.70891C28.8994 6.75851 28.8923 6.80682 28.882 6.85859V6.86706L28.8727 6.91456L24.8267 27.6189L24.8109 27.6997L24.77 27.7711C24.775 27.7623 24.7422 27.8245 24.7033 27.8791C24.6597 27.9403 24.6005 28.0078 24.5192 28.0723C24.4506 28.1271 24.3042 28.2392 24.0656 28.2445C23.886 28.2485 23.7001 28.1896 23.5146 28.1158L23.4502 28.0902L23.3951 28.048L17.2628 23.3464L13.6669 26.6236L12.6161 27.5813L12.8361 26.1767L13.6564 20.9387L13.6831 20.7681L13.8095 20.6503L14.1504 21.0161C13.8095 20.6503 13.8095 20.6503 13.8096 20.6502L13.8099 20.6499L13.8113 20.6486L13.8168 20.6434L13.8385 20.6232L13.9233 20.5442L14.2454 20.244L15.3984 19.1693L18.9268 15.8806C20.6345 14.289 22.366 12.6752 23.4079 11.7041L11.2905 19.2109L10.6782 19.5902L10.5894 19.1461L4.48035 17.0893L4.13989 16.9747V16.6154V16.6111H4.6228V16.6069V16.5257L4.43337 16.1468L4.46755 16.1298L4.49102 16.118L4.5156 16.1088L4.54042 16.0995L4.54774 16.0964L4.59664 16.0758L4.78744 15.9954L5.51229 15.6901L8.10516 14.5978C10.2542 13.6926 13.1275 12.4824 16.0242 11.2626C16.4958 11.064 16.968 10.8651 17.4378 10.6673C19.8576 9.64808 22.2127 8.65613 24.0945 7.86192L24.0953 7.8616C26.3419 6.91768 28.0063 6.22453 28.1029 6.18499L28.1142 6.18038L28.1142 6.18052L28.9355 6.11358ZM28.9355 6.11358H28.4033M28.9355 6.11358H28.4033M28.4033 6.11358L28.3773 6.11369M28.4033 6.11358L28.3773 6.11369M28.3773 6.11369C28.369 6.1138 28.3511 6.11409 28.33 6.11585M28.3773 6.11369L28.33 6.11585M28.33 6.11585C28.307 6.11776 28.2726 6.12197 28.2321 6.13301M28.33 6.11585L28.2321 6.13301M28.2321 6.13301C28.1896 6.14459 28.1563 6.15939 28.1338 6.17064M28.2321 6.13301L28.1338 6.17064M28.1338 6.17064C28.1267 6.17418 28.1207 6.17739 28.1166 6.17962L28.1338 6.17064ZM24.9144 6.23096C26.3023 5.64867 27.2412 5.25472 27.5861 5.11407H27.5871L27.6745 5.08008C27.9616 4.96844 28.2491 4.88342 28.5376 4.87C28.8176 4.85698 29.116 4.91087 29.4249 5.0949L29.4263 5.09571C29.7055 5.26084 29.957 5.59026 30.0529 5.94192C30.1519 6.30499 30.1356 6.69883 30.0302 7.1712L30.03 7.17116L30.0274 7.18429L25.9516 28.0622L25.9296 28.1184L25.9296 28.1184L25.9285 28.1213L25.9282 28.122L25.9282 28.1222L25.9238 28.1328C25.919 28.1441 25.9107 28.163 25.8987 28.1882C25.8746 28.2387 25.8358 28.3136 25.7808 28.4022C25.6699 28.581 25.4988 28.8058 25.2571 29.0007C24.8114 29.359 23.8943 29.6 22.9643 29.1927L22.9606 29.1911L22.8986 29.1646L17.6633 25.1482L17.3316 24.8936L17.0224 25.1752L13.8836 28.0332L13.8647 28.048L13.8642 28.0483L13.8539 28.0556C13.8422 28.0636 13.8221 28.0768 13.7945 28.0931C13.7388 28.1259 13.6556 28.169 13.5525 28.2062C13.3454 28.2809 13.0782 28.3247 12.7872 28.2365L12.7533 28.2262L12.7182 28.2208L12.6926 28.2169L12.6767 28.2073L12.6341 28.1913C12.5842 28.1726 12.5475 28.1557 12.5193 28.1393C12.413 28.0713 12.3224 27.9865 12.2433 27.881L12.2386 27.8747L12.2337 27.8686C12.0492 27.638 11.8799 27.3108 11.6924 26.7115L11.6918 26.7097C11.4821 26.0482 10.8568 24.0037 10.3613 22.3833C10.0688 21.427 9.82155 20.6184 9.73157 20.3292L9.65572 20.0854L9.41374 20.0039L4.07316 18.2052L4.01811 18.1866C3.98764 18.1741 3.94568 18.156 3.89553 18.1322C3.77931 18.0771 3.62476 17.9941 3.46888 17.883L3.46798 17.8824C3.14754 17.6551 2.76935 17.2893 2.6965 16.7033L2.69624 16.7013C2.65523 16.382 2.76918 16.0499 2.9169 15.8331L2.50366 15.5516L2.9169 15.8331C3.07048 15.6076 3.24644 15.4627 3.41792 15.3507L3.418 15.3508L3.42779 15.3441C3.60187 15.2244 3.77484 15.1358 3.90513 15.0772C3.96802 15.0489 4.01956 15.0282 4.05461 15.0148L4.05495 15.0157L4.12331 14.9901L4.12247 14.9877L4.139 14.9807L4.32965 14.9003L5.054 14.595L7.64534 13.5028C9.7933 12.5976 12.6654 11.3874 15.5621 10.1677L15.5621 10.1676C16.9315 9.59087 18.3056 9.01215 19.6118 8.46209C21.0725 7.84693 22.4481 7.26761 23.6368 6.76689C24.0961 6.57425 24.5231 6.39512 24.9144 6.23096ZM12.6388 28.1958C12.653 28.2005 12.6705 28.2071 12.6893 28.2164L12.6875 28.2161C12.6734 28.2097 12.6571 28.203 12.6387 28.1966L12.6388 28.1958ZM4.6228 16.1069V16.2907L4.55557 16.1114C4.57321 16.109 4.59641 16.1069 4.6228 16.1069ZM4.5228 16.1171C4.52541 16.1165 4.52989 16.1156 4.53598 16.1145L4.6228 16.3207V16.3947V16.4402V16.5143L4.4601 16.1346C4.46111 16.1342 4.46226 16.1338 4.46353 16.1334C4.46443 16.1331 4.46613 16.1325 4.4685 16.1317C4.47297 16.1302 4.4798 16.1279 4.48813 16.1256C4.49393 16.1239 4.50485 16.1209 4.51899 16.1179C4.52017 16.1176 4.52136 16.1173 4.52258 16.1171L4.5228 16.1171ZM4.4558 16.1362C4.45514 16.1365 4.45518 16.1365 4.45581 16.1362L4.4558 16.1362ZM4.10418 14.9968L4.10412 14.9968L4.10418 14.9968Z" stroke="#CCCCCC"/>
</svg>
