<svg width="25" height="27" viewBox="0 0 25 27" fill="none" xmlns="http://www.w3.org/2000/svg">
<path d="M11.7226 0.834473C9.82259 0.834473 5.12298 1.03695 2.62298 3.47149C0.822981 5.19595 0.123371 7.83376 0.0233712 10.9784C-0.176629 15.9489 0.92259 19.0931 2.72259 20.7161C3.12259 21.0204 4.12337 21.8331 6.02337 22.4417V24.9777C6.02337 24.9777 6.02298 25.9913 6.62298 26.1942C6.72298 26.1942 6.82376 26.2952 6.92376 26.2952C7.52376 26.2952 8.02259 25.5848 8.72259 24.8747C9.32259 24.1646 9.82298 23.6582 10.123 23.151H11.5234H12.3242C14.2242 23.151 18.9238 22.9485 21.4238 20.514C23.2238 18.6881 23.9238 16.0495 23.9238 12.702C24.0238 12.1948 24.0234 11.587 24.0234 10.9784C23.9234 7.22512 22.8242 4.68955 21.3242 3.2694C20.7242 2.76221 18.1234 0.834473 12.5234 0.834473H11.7226ZM11.5234 2.76221H12.2226H12.3242H12.4238C17.7238 2.76221 19.7238 4.48706 19.9238 4.68994C21.1238 5.70433 21.8238 7.93559 21.9238 10.8773V11.2835C22.0238 11.8921 22.0234 12.3977 22.0234 12.702C21.9234 15.7452 21.323 17.7748 20.123 19.0935C18.023 21.0208 13.6238 21.1222 12.4238 21.1222H11.7226H11.623H11.5234H10.5234L8.92376 22.9489L7.92376 24.0644L7.72259 24.3675C7.52259 24.5704 7.22337 24.9773 7.02337 25.0788V24.8747V20.514C5.02337 20.0068 4.22337 19.2963 4.02337 19.0935C2.62337 17.8762 1.82337 14.9345 2.02337 10.9784V9.96397C2.22337 7.52944 2.82415 5.90681 3.82415 4.79099C5.92415 2.86365 10.3234 2.76221 11.5234 2.76221ZM11.4238 4.99307C10.9238 4.99307 10.9238 5.70433 11.4238 5.70433C15.1238 5.70433 18.3242 8.23951 18.3242 13.0071C18.3242 13.5143 19.0234 13.5143 19.0234 13.0071C19.0234 7.83376 15.6238 4.89163 11.4238 4.99307ZM7.46087 5.93217C7.24837 5.90681 7.02415 5.95634 6.82415 6.1085C5.82415 6.6157 4.82298 7.63167 5.12298 8.7475C5.12298 8.7475 5.32376 9.65926 6.42376 11.5866C7.02376 12.4995 7.52337 13.3119 8.02337 13.9205C8.52337 14.6306 9.32298 15.4417 10.123 16.0503C11.723 17.369 14.2242 18.6881 15.3242 18.9924C16.3242 19.2967 17.4238 18.2812 17.9238 17.2668C18.1238 16.861 18.023 16.3546 17.623 16.0503C17.023 15.4417 16.0242 14.7324 15.3242 14.3266C14.8242 14.0223 14.2234 14.2244 14.0234 14.5287L13.5234 15.137C13.3234 15.4413 12.8242 15.4421 12.8242 15.4421C9.52415 14.5291 8.62298 11.0794 8.62298 11.0794C8.62298 11.0794 8.62376 10.6744 8.92376 10.3701L9.52337 9.86293C9.82337 9.66005 10.0226 9.05063 9.72259 8.54343C9.52259 8.23911 9.22376 7.63127 8.92376 7.32696C8.62376 6.9212 8.02337 6.21153 8.02337 6.21153C7.87337 6.05937 7.67337 5.95753 7.46087 5.93217ZM12.123 7.02185C11.623 6.92041 11.5234 7.73311 12.0234 7.73311C14.8234 7.93599 16.4242 9.86333 16.3242 12.2979C16.2242 12.8051 17.0234 12.8051 17.0234 12.2979C17.1234 9.45757 15.323 7.12329 12.123 7.02185ZM12.4238 8.94958C11.9238 8.84814 11.9238 9.65886 12.4238 9.65886C13.6238 9.65886 14.2226 10.3693 14.2226 11.5866C14.3226 12.0938 15.0234 12.0938 15.0234 11.5866C14.9234 9.96358 14.0238 8.94958 12.4238 8.94958Z" fill="#CCCCCC"/>
</svg>
